<svg xmlns="http://www.w3.org/2000/svg" width="12" height="15" viewBox="0 0 12 15">
  <path id="data" d="M139.469,3.984a1.756,1.756,0,0,1,.219.3H136V.335a1.674,1.674,0,0,1,.281.234ZM135.75,5.357H140V14.2a.8.8,0,0,1-.219.569.7.7,0,0,1-.531.234h-10.5a.7.7,0,0,1-.531-.234A.8.8,0,0,1,128,14.2V.8a.8.8,0,0,1,.219-.569A.7.7,0,0,1,128.75,0H135V4.554a.8.8,0,0,0,.219.569A.7.7,0,0,0,135.75,5.357ZM137,11.518v-.536a.271.271,0,0,0-.07-.193.235.235,0,0,0-.18-.075h-5.5a.235.235,0,0,0-.18.075.271.271,0,0,0-.07.193v.536a.271.271,0,0,0,.07.193.235.235,0,0,0,.18.075h5.5a.235.235,0,0,0,.18-.075A.271.271,0,0,0,137,11.518Zm0-2.143V8.839a.271.271,0,0,0-.07-.193.235.235,0,0,0-.18-.075h-5.5a.235.235,0,0,0-.18.075.271.271,0,0,0-.07.193v.536a.271.271,0,0,0,.07.193.235.235,0,0,0,.18.075h5.5a.235.235,0,0,0,.18-.075A.271.271,0,0,0,137,9.375Zm0-2.143V6.7a.271.271,0,0,0-.07-.193.235.235,0,0,0-.18-.075h-5.5a.235.235,0,0,0-.18.075A.271.271,0,0,0,131,6.7v.536a.271.271,0,0,0,.07.193.235.235,0,0,0,.18.075h5.5a.235.235,0,0,0,.18-.075A.271.271,0,0,0,137,7.232Z" transform="translate(-128)" fill="#202346" opacity="0.3"/>
</svg>
