<svg xmlns="http://www.w3.org/2000/svg" width="12.499" height="10" viewBox="0 0 12.499 10">
  <path id="Icon_awesome-user-edit" data-name="Icon awesome-user-edit" d="M4.375,5a2.5,2.5,0,1,0-2.5-2.5A2.5,2.5,0,0,0,4.375,5Zm1.75.625H5.8a3.4,3.4,0,0,1-2.848,0H2.625A2.626,2.626,0,0,0,0,8.25v.812A.938.938,0,0,0,.937,10H6.306a.938.938,0,0,1-.051-.416l.133-1.189.023-.217.154-.154,1.51-1.51a2.6,2.6,0,0,0-1.951-.889ZM7.01,8.463,6.877,9.654A.311.311,0,0,0,7.221,10L8.41,9.865,11.1,7.172l-1.4-1.4L7.01,8.463Zm5.353-3.211-.74-.74a.468.468,0,0,0-.66,0l-.738.738-.08.08,1.4,1.4.816-.816a.47.47,0,0,0,0-.662Z" fill="#e8e8e8"/>
</svg>
