<svg id="Group_1763" data-name="Group 1763" xmlns="http://www.w3.org/2000/svg" width="21.399" height="21.835" viewBox="0 0 21.399 21.835">
  <path id="Path_168" data-name="Path 168" d="M141.031,108.991a9.355,9.355,0,0,0-.231-2.232H130.55v4.051h6.017a5.335,5.335,0,0,1-2.232,3.542l-.021.136L137.555,117l.224.022a10.675,10.675,0,0,0,3.251-8.03" transform="translate(-119.633 -97.831)" fill="#4285f4"/>
  <path id="Path_169" data-name="Path 169" d="M23.678,165.128a10.406,10.406,0,0,0,7.23-2.644l-3.445-2.669a6.46,6.46,0,0,1-3.785,1.092,6.572,6.572,0,0,1-6.211-4.537l-.128.011-3.37,2.608-.044.122a10.909,10.909,0,0,0,9.753,6.017" transform="translate(-12.761 -143.293)" fill="#34a853"/>
  <path id="Path_170" data-name="Path 170" d="M4.707,78.425a6.721,6.721,0,0,1-.365-2.159,7.063,7.063,0,0,1,.352-2.159l-.006-.145-3.411-2.65-.112.053a10.894,10.894,0,0,0,0,9.8l3.542-2.741" transform="translate(0 -65.348)" fill="#fbbc05"/>
  <path id="Path_171" data-name="Path 171" d="M23.672,4.218a6.051,6.051,0,0,1,4.221,1.626l3.081-3.008A10.489,10.489,0,0,0,23.672,0a10.91,10.91,0,0,0-9.754,6.019l3.531,2.739a6.6,6.6,0,0,1,6.223-4.537" transform="translate(-12.755 0.004)" fill="#eb4335"/>
</svg>
