<svg xmlns="http://www.w3.org/2000/svg" width="534" height="570" viewBox="0 0 534 570">
  <g id="pattern" transform="translate(-60 -60)" opacity="0.6">
    <g id="Group_5844" data-name="Group 5844" transform="translate(11892 354)">
      <circle id="Ellipse_1" data-name="Ellipse 1" cx="3.5" cy="3.5" r="3.5" transform="translate(-11385 201)" fill="#e8e8e8"/>
      <circle id="Ellipse_1-2" data-name="Ellipse 1" cx="3.5" cy="3.5" r="3.5" transform="translate(-11365 201)" fill="#e8e8e8"/>
      <circle id="Ellipse_1-3" data-name="Ellipse 1" cx="3.5" cy="3.5" r="3.5" transform="translate(-11345 201)" fill="#e8e8e8"/>
      <circle id="Ellipse_1-4" data-name="Ellipse 1" cx="3.5" cy="3.5" r="3.5" transform="translate(-11325 201)" fill="#e8e8e8"/>
      <circle id="Ellipse_1-5" data-name="Ellipse 1" cx="3.5" cy="3.5" r="3.5" transform="translate(-11305 201)" fill="#e8e8e8"/>
      <circle id="Ellipse_1-6" data-name="Ellipse 1" cx="3.5" cy="3.5" r="3.5" transform="translate(-11385 218)" fill="#e8e8e8"/>
      <circle id="Ellipse_1-7" data-name="Ellipse 1" cx="3.5" cy="3.5" r="3.5" transform="translate(-11365 218)" fill="#e8e8e8"/>
      <circle id="Ellipse_1-8" data-name="Ellipse 1" cx="3.5" cy="3.5" r="3.5" transform="translate(-11345 218)" fill="#e8e8e8"/>
      <circle id="Ellipse_1-9" data-name="Ellipse 1" cx="3.5" cy="3.5" r="3.5" transform="translate(-11325 218)" fill="#e8e8e8"/>
      <circle id="Ellipse_1-10" data-name="Ellipse 1" cx="3.5" cy="3.5" r="3.5" transform="translate(-11305 218)" fill="#e8e8e8"/>
      <circle id="Ellipse_1-11" data-name="Ellipse 1" cx="3.5" cy="3.5" r="3.5" transform="translate(-11385 235)" fill="#e8e8e8"/>
      <circle id="Ellipse_1-12" data-name="Ellipse 1" cx="3.5" cy="3.5" r="3.5" transform="translate(-11365 235)" fill="#e8e8e8"/>
      <circle id="Ellipse_1-13" data-name="Ellipse 1" cx="3.5" cy="3.5" r="3.5" transform="translate(-11345 235)" fill="#e8e8e8"/>
      <circle id="Ellipse_1-14" data-name="Ellipse 1" cx="3.5" cy="3.5" r="3.5" transform="translate(-11325 235)" fill="#e8e8e8"/>
      <circle id="Ellipse_1-15" data-name="Ellipse 1" cx="3.5" cy="3.5" r="3.5" transform="translate(-11305 235)" fill="#e8e8e8"/>
      <circle id="Ellipse_1-16" data-name="Ellipse 1" cx="3.5" cy="3.5" r="3.5" transform="translate(-11385 252)" fill="#e8e8e8"/>
      <circle id="Ellipse_1-17" data-name="Ellipse 1" cx="3.5" cy="3.5" r="3.5" transform="translate(-11365 252)" fill="#e8e8e8"/>
      <circle id="Ellipse_1-18" data-name="Ellipse 1" cx="3.5" cy="3.5" r="3.5" transform="translate(-11345 252)" fill="#e8e8e8"/>
      <circle id="Ellipse_1-19" data-name="Ellipse 1" cx="3.5" cy="3.5" r="3.5" transform="translate(-11325 252)" fill="#e8e8e8"/>
      <circle id="Ellipse_1-20" data-name="Ellipse 1" cx="3.5" cy="3.5" r="3.5" transform="translate(-11305 252)" fill="#e8e8e8"/>
      <circle id="Ellipse_1-21" data-name="Ellipse 1" cx="3.5" cy="3.5" r="3.5" transform="translate(-11385 269)" fill="#e8e8e8"/>
      <circle id="Ellipse_1-22" data-name="Ellipse 1" cx="3.5" cy="3.5" r="3.5" transform="translate(-11365 269)" fill="#e8e8e8"/>
      <circle id="Ellipse_1-23" data-name="Ellipse 1" cx="3.5" cy="3.5" r="3.5" transform="translate(-11345 269)" fill="#e8e8e8"/>
      <circle id="Ellipse_1-24" data-name="Ellipse 1" cx="3.5" cy="3.5" r="3.5" transform="translate(-11325 269)" fill="#e8e8e8"/>
      <circle id="Ellipse_1-25" data-name="Ellipse 1" cx="3.5" cy="3.5" r="3.5" transform="translate(-11305 269)" fill="#e8e8e8"/>
    </g>
    <g id="Group_5845" data-name="Group 5845" transform="translate(11445 -141)">
      <circle id="Ellipse_1-26" data-name="Ellipse 1" cx="3.5" cy="3.5" r="3.5" transform="translate(-11385 201)" fill="#e8e8e8"/>
      <circle id="Ellipse_1-27" data-name="Ellipse 1" cx="3.5" cy="3.5" r="3.5" transform="translate(-11365 201)" fill="#e8e8e8"/>
      <circle id="Ellipse_1-28" data-name="Ellipse 1" cx="3.5" cy="3.5" r="3.5" transform="translate(-11345 201)" fill="#e8e8e8"/>
      <circle id="Ellipse_1-29" data-name="Ellipse 1" cx="3.5" cy="3.5" r="3.5" transform="translate(-11325 201)" fill="#e8e8e8"/>
      <circle id="Ellipse_1-30" data-name="Ellipse 1" cx="3.5" cy="3.5" r="3.5" transform="translate(-11305 201)" fill="#e8e8e8"/>
      <circle id="Ellipse_1-31" data-name="Ellipse 1" cx="3.5" cy="3.5" r="3.5" transform="translate(-11385 218)" fill="#e8e8e8"/>
      <circle id="Ellipse_1-32" data-name="Ellipse 1" cx="3.5" cy="3.5" r="3.5" transform="translate(-11365 218)" fill="#e8e8e8"/>
      <circle id="Ellipse_1-33" data-name="Ellipse 1" cx="3.5" cy="3.5" r="3.5" transform="translate(-11345 218)" fill="#e8e8e8"/>
      <circle id="Ellipse_1-34" data-name="Ellipse 1" cx="3.5" cy="3.5" r="3.5" transform="translate(-11325 218)" fill="#e8e8e8"/>
      <circle id="Ellipse_1-35" data-name="Ellipse 1" cx="3.5" cy="3.5" r="3.5" transform="translate(-11305 218)" fill="#e8e8e8"/>
      <circle id="Ellipse_1-36" data-name="Ellipse 1" cx="3.5" cy="3.5" r="3.5" transform="translate(-11385 235)" fill="#e8e8e8"/>
      <circle id="Ellipse_1-37" data-name="Ellipse 1" cx="3.5" cy="3.5" r="3.5" transform="translate(-11365 235)" fill="#e8e8e8"/>
      <circle id="Ellipse_1-38" data-name="Ellipse 1" cx="3.5" cy="3.5" r="3.5" transform="translate(-11345 235)" fill="#e8e8e8"/>
      <circle id="Ellipse_1-39" data-name="Ellipse 1" cx="3.5" cy="3.5" r="3.5" transform="translate(-11325 235)" fill="#e8e8e8"/>
      <circle id="Ellipse_1-40" data-name="Ellipse 1" cx="3.5" cy="3.5" r="3.5" transform="translate(-11305 235)" fill="#e8e8e8"/>
      <circle id="Ellipse_1-41" data-name="Ellipse 1" cx="3.5" cy="3.5" r="3.5" transform="translate(-11385 252)" fill="#e8e8e8"/>
      <circle id="Ellipse_1-42" data-name="Ellipse 1" cx="3.5" cy="3.5" r="3.5" transform="translate(-11365 252)" fill="#e8e8e8"/>
      <circle id="Ellipse_1-43" data-name="Ellipse 1" cx="3.5" cy="3.5" r="3.5" transform="translate(-11345 252)" fill="#e8e8e8"/>
      <circle id="Ellipse_1-44" data-name="Ellipse 1" cx="3.5" cy="3.5" r="3.5" transform="translate(-11325 252)" fill="#e8e8e8"/>
      <circle id="Ellipse_1-45" data-name="Ellipse 1" cx="3.5" cy="3.5" r="3.5" transform="translate(-11305 252)" fill="#e8e8e8"/>
      <circle id="Ellipse_1-46" data-name="Ellipse 1" cx="3.5" cy="3.5" r="3.5" transform="translate(-11385 269)" fill="#e8e8e8"/>
      <circle id="Ellipse_1-47" data-name="Ellipse 1" cx="3.5" cy="3.5" r="3.5" transform="translate(-11365 269)" fill="#e8e8e8"/>
      <circle id="Ellipse_1-48" data-name="Ellipse 1" cx="3.5" cy="3.5" r="3.5" transform="translate(-11345 269)" fill="#e8e8e8"/>
      <circle id="Ellipse_1-49" data-name="Ellipse 1" cx="3.5" cy="3.5" r="3.5" transform="translate(-11325 269)" fill="#e8e8e8"/>
      <circle id="Ellipse_1-50" data-name="Ellipse 1" cx="3.5" cy="3.5" r="3.5" transform="translate(-11305 269)" fill="#e8e8e8"/>
    </g>
  </g>
</svg>
