<svg xmlns="http://www.w3.org/2000/svg" width="87" height="75" viewBox="0 0 87 75">
  <g id="Group_5845" data-name="Group 5845" transform="translate(0 0.021)">
    <circle id="Ellipse_1" data-name="Ellipse 1" cx="3.5" cy="3.5" r="3.5" transform="translate(80 -0.021)" fill="#fff"/>
    <circle id="Ellipse_1-2" data-name="Ellipse 1" cx="3.5" cy="3.5" r="3.5" transform="translate(60 -0.021)" fill="#fff"/>
    <circle id="Ellipse_1-3" data-name="Ellipse 1" cx="3.5" cy="3.5" r="3.5" transform="translate(40 -0.021)" fill="#fff"/>
    <circle id="Ellipse_1-4" data-name="Ellipse 1" cx="3.5" cy="3.5" r="3.5" transform="translate(20 -0.021)" fill="#fff"/>
    <circle id="Ellipse_1-5" data-name="Ellipse 1" cx="3.5" cy="3.5" r="3.5" transform="translate(0 -0.021)" fill="#fff"/>
    <circle id="Ellipse_1-6" data-name="Ellipse 1" cx="3.5" cy="3.5" r="3.5" transform="translate(80 16.979)" fill="#fff"/>
    <circle id="Ellipse_1-7" data-name="Ellipse 1" cx="3.5" cy="3.5" r="3.5" transform="translate(60 16.979)" fill="#fff"/>
    <circle id="Ellipse_1-8" data-name="Ellipse 1" cx="3.5" cy="3.5" r="3.5" transform="translate(40 16.979)" fill="#fff"/>
    <circle id="Ellipse_1-9" data-name="Ellipse 1" cx="3.5" cy="3.5" r="3.5" transform="translate(20 16.979)" fill="#fff"/>
    <circle id="Ellipse_1-10" data-name="Ellipse 1" cx="3.5" cy="3.5" r="3.5" transform="translate(0 16.979)" fill="#fff"/>
    <circle id="Ellipse_1-11" data-name="Ellipse 1" cx="3.5" cy="3.5" r="3.5" transform="translate(80 33.979)" fill="#fff"/>
    <circle id="Ellipse_1-12" data-name="Ellipse 1" cx="3.5" cy="3.5" r="3.5" transform="translate(60 33.979)" fill="#fff"/>
    <circle id="Ellipse_1-13" data-name="Ellipse 1" cx="3.5" cy="3.5" r="3.5" transform="translate(40 33.979)" fill="#fff"/>
    <circle id="Ellipse_1-14" data-name="Ellipse 1" cx="3.5" cy="3.5" r="3.5" transform="translate(20 33.979)" fill="#fff"/>
    <circle id="Ellipse_1-15" data-name="Ellipse 1" cx="3.5" cy="3.5" r="3.5" transform="translate(0 33.979)" fill="#fff"/>
    <circle id="Ellipse_1-16" data-name="Ellipse 1" cx="3.5" cy="3.5" r="3.5" transform="translate(80 50.979)" fill="#fff"/>
    <circle id="Ellipse_1-17" data-name="Ellipse 1" cx="3.5" cy="3.5" r="3.5" transform="translate(60 50.979)" fill="#fff"/>
    <circle id="Ellipse_1-18" data-name="Ellipse 1" cx="3.5" cy="3.5" r="3.5" transform="translate(40 50.979)" fill="#fff"/>
    <circle id="Ellipse_1-19" data-name="Ellipse 1" cx="3.5" cy="3.5" r="3.5" transform="translate(20 50.979)" fill="#fff"/>
    <circle id="Ellipse_1-20" data-name="Ellipse 1" cx="3.5" cy="3.5" r="3.5" transform="translate(0 50.979)" fill="#fff"/>
    <circle id="Ellipse_1-21" data-name="Ellipse 1" cx="3.5" cy="3.5" r="3.5" transform="translate(80 67.979)" fill="#fff"/>
    <circle id="Ellipse_1-22" data-name="Ellipse 1" cx="3.5" cy="3.5" r="3.5" transform="translate(60 67.979)" fill="#fff"/>
    <circle id="Ellipse_1-23" data-name="Ellipse 1" cx="3.5" cy="3.5" r="3.5" transform="translate(40 67.979)" fill="#fff"/>
    <circle id="Ellipse_1-24" data-name="Ellipse 1" cx="3.5" cy="3.5" r="3.5" transform="translate(20 67.979)" fill="#fff"/>
    <circle id="Ellipse_1-25" data-name="Ellipse 1" cx="3.5" cy="3.5" r="3.5" transform="translate(0 67.979)" fill="#fff"/>
  </g>
</svg>
