<svg xmlns="http://www.w3.org/2000/svg" width="15" height="12.001" viewBox="0 0 15 12.001">
  <path id="Icon_awesome-user-cog" data-name="Icon awesome-user-cog" d="M14.31,8.75a2.75,2.75,0,0,0,0-1l.6-.349a.17.17,0,0,0,.077-.2,3.518,3.518,0,0,0-.778-1.345A.171.171,0,0,0,14,5.825l-.6.349a2.752,2.752,0,0,0-.865-.5v-.7A.171.171,0,0,0,12.4,4.81a3.537,3.537,0,0,0-1.552,0,.171.171,0,0,0-.134.166v.7a2.752,2.752,0,0,0-.865.5l-.6-.349a.171.171,0,0,0-.211.033A3.518,3.518,0,0,0,8.256,7.2a.173.173,0,0,0,.077.2l.6.349a2.75,2.75,0,0,0,0,1l-.6.349a.17.17,0,0,0-.077.2,3.535,3.535,0,0,0,.778,1.345.171.171,0,0,0,.211.033l.6-.349a2.752,2.752,0,0,0,.865.5v.7a.171.171,0,0,0,.134.166,3.537,3.537,0,0,0,1.552,0,.171.171,0,0,0,.134-.166v-.7a2.752,2.752,0,0,0,.865-.5l.6.349a.171.171,0,0,0,.211-.033A3.518,3.518,0,0,0,14.992,9.3a.173.173,0,0,0-.077-.2l-.6-.349Zm-2.684.638a1.137,1.137,0,1,1,1.137-1.137A1.138,1.138,0,0,1,11.626,9.388ZM5.251,6a3,3,0,1,0-3-3A3,3,0,0,0,5.251,6ZM9.967,11.31c-.054-.028-.108-.061-.159-.091l-.185.108a.92.92,0,0,1-1.137-.171,4.274,4.274,0,0,1-.942-1.631.917.917,0,0,1,.42-1.071l.185-.108q0-.091,0-.183l-.185-.108a.916.916,0,0,1-.42-1.071c.021-.068.052-.136.075-.2-.089-.007-.176-.028-.267-.028H6.959a4.08,4.08,0,0,1-3.418,0H3.15A3.151,3.151,0,0,0,0,9.9v.975A1.125,1.125,0,0,0,1.125,12H9.376a1.124,1.124,0,0,0,.638-.2.913.913,0,0,1-.047-.277Z" fill="#8176f2"/>
</svg>
